<svg width="19" height="18" viewBox="0 0 19 18" fill="none" xmlns="http://www.w3.org/2000/svg">
<path d="M17.8369 6.06597L12.764 5.32639L10.4967 0.729168C10.0904 -0.0902767 8.91332 -0.100693 8.5036 0.729168L6.23624 5.32639L1.16332 6.06597C0.253597 6.19792 -0.110986 7.31945 0.548736 7.96181L4.21887 11.5382L3.35082 16.5903C3.19457 17.5035 4.15638 18.1875 4.96193 17.7604L9.50013 15.375L14.0383 17.7604C14.8439 18.184 15.8057 17.5035 15.6494 16.5903L14.7814 11.5382L18.4515 7.96181C19.1112 7.31945 18.7467 6.19792 17.8369 6.06597ZM12.9932 10.9549L13.8161 15.7604L9.50013 13.4931L5.18415 15.7604L6.00707 10.9549L2.51401 7.55208L7.3404 6.8507L9.50013 2.4757L11.6598 6.8507L16.4862 7.55208L12.9932 10.9549Z" fill="black"/>
</svg>
