<svg width="34" height="35" viewBox="0 0 34 35" fill="none" xmlns="http://www.w3.org/2000/svg">
<mask id="mask0_1_4597" style="mask-type:alpha" maskUnits="userSpaceOnUse" x="0" y="0" width="34" height="35">
<rect y="0.5" width="34" height="34" fill="#D9D9D9"/>
</mask>
<g mask="url(#mask0_1_4597)">
<path d="M7.82714 30.25C7.18964 30.25 6.62298 30.0552 6.12714 29.6656C5.63131 29.276 5.28895 28.7743 5.10006 28.1604L1.48756 15.0562C1.3695 14.6076 1.44624 14.1944 1.71777 13.8167C1.9893 13.4389 2.36117 13.25 2.83339 13.25H9.56256L15.7959 3.97083C15.9139 3.78194 16.0792 3.62847 16.2917 3.51042C16.5042 3.39236 16.7285 3.33333 16.9646 3.33333C17.2008 3.33333 17.4251 3.39236 17.6376 3.51042C17.8501 3.62847 18.0153 3.78194 18.1334 3.97083L24.3667 13.25H31.1667C31.6389 13.25 32.0108 13.4389 32.2824 13.8167C32.5539 14.1944 32.6306 14.6076 32.5126 15.0562L28.9001 28.1604C28.7112 28.7743 28.3688 29.276 27.873 29.6656C27.3771 30.0552 26.8105 30.25 26.173 30.25H7.82714ZM7.79173 27.4167H26.2084L29.3251 16.0833H4.67506L7.79173 27.4167ZM17.0001 24.5833C17.7792 24.5833 18.4462 24.3059 19.0011 23.751C19.556 23.1962 19.8334 22.5292 19.8334 21.75C19.8334 20.9708 19.556 20.3038 19.0011 19.749C18.4462 19.1941 17.7792 18.9167 17.0001 18.9167C16.2209 18.9167 15.5539 19.1941 14.999 19.749C14.4442 20.3038 14.1667 20.9708 14.1667 21.75C14.1667 22.5292 14.4442 23.1962 14.999 23.751C15.5539 24.3059 16.2209 24.5833 17.0001 24.5833ZM12.998 13.25H20.9667L16.9646 7.3L12.998 13.25Z" fill="#191919"/>
</g>
<circle cx="23.6522" cy="27.1087" r="7.3913" fill="#ED1C24"/>
<path d="M22.9189 26.3203H23.6709C24.029 26.3203 24.2943 26.2308 24.4668 26.0518C24.6393 25.8727 24.7256 25.6351 24.7256 25.3389C24.7256 25.0524 24.6393 24.8294 24.4668 24.6699C24.2975 24.5104 24.0632 24.4307 23.7637 24.4307C23.4935 24.4307 23.2673 24.5055 23.085 24.6553C22.9027 24.8018 22.8115 24.9938 22.8115 25.2315H21.4004C21.4004 24.8604 21.4997 24.5283 21.6982 24.2354C21.9001 23.9391 22.18 23.708 22.5381 23.542C22.8994 23.376 23.2965 23.293 23.7295 23.293C24.4814 23.293 25.0706 23.4736 25.4971 23.835C25.9235 24.193 26.1367 24.6878 26.1367 25.3194C26.1367 25.6449 26.0374 25.9444 25.8389 26.2178C25.6403 26.4912 25.3799 26.7012 25.0576 26.8477C25.458 26.9909 25.7559 27.2057 25.9512 27.4922C26.1497 27.7787 26.249 28.1172 26.249 28.5078C26.249 29.1393 26.0179 29.6455 25.5557 30.0264C25.0967 30.4072 24.488 30.5977 23.7295 30.5977C23.0199 30.5977 22.4388 30.4105 21.9863 30.0361C21.5371 29.6618 21.3125 29.167 21.3125 28.5518H22.7236C22.7236 28.8187 22.8229 29.0368 23.0215 29.2061C23.2233 29.3753 23.4707 29.46 23.7637 29.46C24.099 29.46 24.361 29.3721 24.5498 29.1963C24.7419 29.0173 24.8379 28.7813 24.8379 28.4883C24.8379 27.7787 24.4473 27.4238 23.666 27.4238H22.9189V26.3203Z" fill="white"/>
</svg>
