<svg width="12" height="12" viewBox="0 0 12 12" fill="none" xmlns="http://www.w3.org/2000/svg">
<g clip-path="url(#clip0_1_4924)">
<path fill-rule="evenodd" clip-rule="evenodd" d="M12 2.16C11.9975 2.35019 11.9209 2.53188 11.7864 2.66637C11.6519 2.80086 11.4702 2.87752 11.28 2.88H0.72C0.529817 2.87752 0.348124 2.80086 0.213633 2.66637C0.0791416 2.53188 0.00248637 2.35019 0 2.16C0.00248637 1.96982 0.0791416 1.78813 0.213633 1.65363C0.348124 1.51914 0.529817 1.44249 0.72 1.44H11.28C11.4702 1.44249 11.6519 1.51914 11.7864 1.65363C11.9209 1.78813 11.9975 1.96982 12 2.16Z" fill="black"/>
<path fill-rule="evenodd" clip-rule="evenodd" d="M12 6C11.9975 6.19018 11.9209 6.37188 11.7864 6.50637C11.6519 6.64086 11.4702 6.71751 11.28 6.72H0.72C0.529817 6.71751 0.348124 6.64086 0.213633 6.50637C0.0791416 6.37188 0.00248637 6.19018 0 6C0.00248637 5.80982 0.0791416 5.62812 0.213633 5.49363C0.348124 5.35914 0.529817 5.28249 0.72 5.28H11.28C11.4702 5.28249 11.6519 5.35914 11.7864 5.49363C11.9209 5.62812 11.9975 5.80982 12 6Z" fill="black"/>
<path fill-rule="evenodd" clip-rule="evenodd" d="M12 9.84C11.9975 10.0302 11.9209 10.2119 11.7864 10.3464C11.6519 10.4809 11.4702 10.5575 11.28 10.56H0.72C0.529817 10.5575 0.348124 10.4809 0.213633 10.3464C0.0791416 10.2119 0.00248637 10.0302 0 9.84C0.00248637 9.64981 0.0791416 9.46812 0.213633 9.33363C0.348124 9.19914 0.529817 9.12248 0.72 9.12H11.28C11.4702 9.12248 11.6519 9.19914 11.7864 9.33363C11.9209 9.46812 11.9975 9.64981 12 9.84Z" fill="black"/>
</g>
<defs>
<clipPath id="clip0_1_4924">
<rect width="12" height="12" fill="white"/>
</clipPath>
</defs>
</svg>
